<?xml version="1.0" standalone="no"?>
<!DOCTYPE svg PUBLIC "-//W3C//DTD SVG 20010904//EN"
 "http://www.w3.org/TR/2001/REC-SVG-20010904/DTD/svg10.dtd">
<svg version="1.0" xmlns="http://www.w3.org/2000/svg"
 width="500.000000pt" height="500.000000pt" viewBox="0 0 500.000000 500.000000"
 preserveAspectRatio="xMidYMid meet">
<metadata>
Created by potrace 1.11, written by Peter Selinger 2001-2013
</metadata>
<g transform="translate(0.000000,500.000000) scale(0.100000,-0.100000)"
fill="#000000" stroke="none">
<path d="M1621 4234 c-247 -42 -449 -271 -372 -422 35 -68 95 -83 150 -36 33
27 41 54 16 54 -40 0 -25 102 26 177 73 106 175 168 280 172 36 1 76 -3 89 -8
l25 -10 -28 0 c-87 -2 -144 -74 -282 -356 -126 -257 -169 -321 -242 -355 -26
-13 -49 -24 -51 -26 -8 -5 30 -64 50 -78 12 -9 40 -16 61 -16 129 0 207 122
327 510 54 175 103 260 171 293 31 14 35 14 60 -4 36 -26 62 -85 60 -137 -4
-113 -124 -222 -245 -222 -24 0 -46 -33 -32 -47 10 -10 94 -11 148 -1 203 37
304 188 227 339 -68 135 -248 206 -438 173z"/>
<path d="M2523 4122 c-4 -10 -37 -81 -74 -159 -71 -150 -72 -152 -136 -144 -6
1 -21 -12 -32 -28 l-22 -30 46 -3 46 -3 -48 -97 c-43 -87 -73 -122 -73 -85 0
6 -17 -5 -37 -27 -60 -63 -116 -81 -186 -60 -22 7 -38 44 -30 73 5 19 7 19 33
6 34 -17 100 -12 142 12 38 22 78 102 72 145 -10 87 -94 118 -191 71 -67 -31
-158 -160 -178 -253 -29 -129 10 -219 96 -220 76 0 180 56 238 129 l36 47 1
-63 c0 -84 22 -108 97 -108 59 1 116 33 178 102 59 65 82 109 69 133 -6 11
-13 20 -15 20 -3 0 -23 -20 -46 -45 -45 -49 -97 -67 -125 -44 -24 20 -13 62
46 172 l52 97 42 0 c36 0 44 4 60 31 l18 31 -46 -3 c-25 -2 -46 -1 -46 2 0 6
131 282 147 311 2 4 -26 7 -62 7 -52 -1 -68 -4 -72 -17z m-383 -392 c0 -58
-74 -129 -112 -109 -18 10 -18 11 2 39 32 45 80 90 96 90 8 0 14 -9 14 -20z"/>
<path d="M2900 3805 c-9 -11 -12 -78 -12 -247 0 -281 -10 -264 140 -262 56 1
108 7 115 13 10 7 14 48 15 146 l1 135 -79 0 -78 0 3 -32 c2 -18 4 -38 4 -44
1 -6 11 -11 24 -10 20 1 22 -3 22 -59 l0 -59 -32 -1 c-18 0 -33 4 -34 10 -1 5
-2 83 -3 173 l-2 162 38 0 c36 0 37 -1 40 -42 l3 -43 45 0 45 0 0 78 c0 58 -4
80 -15 87 -8 5 -63 10 -121 10 -82 0 -109 -3 -119 -15z"/>
<path d="M3170 3774 l0 -46 40 4 c22 2 41 -1 43 -7 2 -5 3 -103 2 -217 -1
-202 0 -208 20 -209 11 0 30 -2 43 -3 13 -2 25 1 28 6 3 4 6 102 6 218 l1 210
38 0 c39 0 45 7 44 55 l0 30 -132 3 -133 3 0 -47z"/>
<path d="M3450 3562 c0 -142 2 -261 4 -263 3 -2 25 -3 51 -1 l46 4 -1 62 c-1
33 -1 84 0 111 l1 50 40 -109 c21 -61 44 -113 50 -117 10 -6 80 -2 87 6 2 2
-12 47 -32 101 -41 111 -43 124 -17 124 34 0 39 22 38 148 -2 97 -5 125 -17
132 -8 5 -68 10 -132 10 l-118 0 0 -258z m170 103 c0 -58 -2 -63 -24 -67 -41
-8 -51 6 -48 68 2 62 10 74 48 66 22 -4 24 -9 24 -67z"/>
<path d="M1855 3252 c-20 -3 -21 -9 -20 -110 1 -135 -1 -147 -32 -161 -38 -17
-435 -14 -460 4 -15 11 -18 29 -20 127 0 62 -2 119 -2 126 -1 8 -21 12 -65 12
l-63 0 -2 -87 c-2 -101 -1 -98 -110 -180 -42 -31 -96 -72 -120 -90 -25 -18
-64 -50 -88 -70 -34 -30 -52 -37 -85 -38 l-41 0 -46 -90 -46 -90 -3 91 -3 91
-67 -1 -67 -1 -3 -238 -2 -237 22 -1 c13 -1 41 -1 63 -1 37 1 39 0 21 -13 -11
-8 -45 -24 -75 -35 -175 -64 -251 -109 -310 -184 -58 -73 -37 -127 90 -227 85
-66 139 -126 139 -153 0 -8 -9 -20 -19 -25 -42 -23 -75 -133 -51 -171 8 -13
-5 -16 -88 -20 l-97 -5 -1 -393 c-1 -215 2 -393 5 -393 3 -1 131 -2 284 -3
l277 -1 0 292 c0 161 3 293 7 293 32 0 133 -24 133 -32 0 -7 26 -8 73 -4 254
21 382 20 477 -3 136 -33 358 -43 563 -27 97 7 300 41 318 52 6 3 88 6 182 5
129 -1 175 -5 187 -16 10 -9 37 -13 80 -12 55 2 65 5 70 22 3 12 13 20 25 20
11 0 33 3 49 7 18 5 49 2 80 -7 134 -39 244 -50 491 -50 181 0 294 6 396 21
21 3 40 1 44 -5 8 -14 100 -14 126 0 12 6 18 17 15 24 -4 11 15 20 67 36 162
48 321 137 349 197 10 20 39 38 114 72 134 60 172 84 185 117 15 40 -1 62 -79
108 -60 36 -67 44 -67 71 0 27 -2 30 -17 21 -14 -9 -38 -48 -38 -62 0 -1 16
-22 35 -45 19 -23 35 -50 35 -60 0 -30 -75 -86 -147 -109 -82 -27 -178 -27
-223 0 -16 10 -30 25 -30 34 0 27 58 81 175 160 173 118 221 172 230 263 7 73
-27 110 -204 221 -114 72 -123 118 -39 202 l43 43 -50 -39 c-27 -22 -55 -46
-62 -55 -18 -23 -22 -11 -23 75 -3 145 -11 131 75 130 l75 -2 0 76 0 76 -230
0 -230 0 0 -75 0 -76 73 0 72 1 0 -167 c-1 -186 -7 -171 71 -168 39 1 42 -1
57 -37 9 -21 38 -63 66 -93 28 -30 60 -74 71 -97 19 -36 20 -47 10 -85 -32
-119 -258 -243 -405 -223 -52 8 -135 45 -135 61 0 9 72 97 110 134 22 22 196
223 198 231 2 6 -42 9 -111 8 l-115 -1 -69 -86 c-37 -48 -88 -110 -113 -138
-25 -28 -53 -66 -63 -84 -25 -46 -42 -27 -32 36 7 48 13 118 18 203 1 25 8 46
15 49 23 7 12 22 -18 22 -19 0 -41 10 -57 24 -14 13 -42 32 -62 42 l-37 18 1
78 1 78 -28 0 c-18 0 -28 5 -29 15 -3 53 -2 86 4 91 3 3 4 11 1 18 -2 6 14 29
36 51 l40 39 0 -177 c0 -162 2 -177 18 -178 53 -3 134 0 139 5 4 3 7 39 7 79
l1 72 88 0 c77 -1 87 1 88 17 7 142 11 136 -96 131 -78 -5 -85 -3 -85 14 0 17
9 18 122 15 l123 -3 -1 69 c0 37 -3 72 -6 78 -6 8 -123 10 -365 5 -32 -1 -32
-1 -35 -58 -2 -34 -8 -58 -15 -61 -10 -3 -13 14 -13 60 l0 63 -127 -1 c-71 -1
-131 -2 -135 -3 -4 0 -7 -32 -7 -71 0 -71 2 -75 42 -71 14 2 17 -6 17 -56 0
-58 0 -58 -46 -87 -25 -16 -52 -35 -60 -44 -14 -13 -18 -13 -36 5 l-20 21 36
40 36 39 0 114 0 114 -207 0 -208 0 0 -153 c0 -97 -4 -151 -10 -149 -5 2 -11
42 -11 90 -2 81 -4 89 -40 149 -21 35 -38 67 -36 71 1 4 -6 4 -15 -1 -10 -5
-89 -8 -175 -7 l-158 1 -1 -41 c0 -22 -1 -73 -1 -113 l0 -72 -42 -29 c-56 -39
-79 -61 -101 -94 l-18 -28 -36 37 c-19 20 -63 57 -96 82 -79 60 -75 55 -80 79
-4 26 5 30 73 28 l53 -1 -3 71 -3 70 -77 0 c-42 0 -79 3 -82 6 -3 3 10 24 30
47 30 36 41 42 75 42 l39 0 0 140 0 140 253 0 c212 0 256 -2 275 -16 12 -8 22
-22 22 -30 0 -32 -59 -42 -257 -42 -105 0 -196 -3 -202 -6 -6 -4 -11 -16 -11
-26 0 -15 36 -33 181 -89 l180 -71 477 0 c442 1 480 2 518 19 23 11 49 29 58
42 20 29 21 92 1 109 -13 11 -13 15 0 33 25 36 19 90 -12 118 -53 48 -63 49
-437 49 l-354 0 0 -176 c0 -97 -2 -178 -5 -180 -2 -3 -55 16 -118 40 -63 25
-107 46 -99 46 152 7 252 105 193 190 -28 41 -65 64 -118 76 -16 4 -441 6
-637 4 l-38 0 0 -185 c0 -185 0 -185 22 -185 20 0 17 -6 -25 -47 l-47 -48 -92
0 -93 0 0 -70 0 -69 47 -1 c53 0 61 -5 65 -43 7 -55 12 -222 7 -222 -11 0
-129 73 -136 83 -3 6 -14 12 -24 13 -37 6 -48 29 -35 78 17 69 14 127 -10 165
l-21 34 72 69 c39 38 80 68 91 68 26 0 90 33 111 58 16 20 41 142 29 142 -3 0
-5 36 -3 80 2 60 -1 80 -10 81 -64 3 -86 4 -103 1z m1662 -108 c3 -9 0 -20 -8
-25 -8 -5 -134 -9 -280 -9 l-266 0 0 25 0 25 274 0 c242 0 274 -2 280 -16z
m-2300 -192 c21 -28 74 -59 113 -66 14 -2 110 -5 214 -5 l189 -1 -64 -48 -64
-49 -132 2 c-73 1 -136 -1 -140 -4 -5 -3 -8 -111 -9 -238 l0 -233 41 -1 c22
-1 45 -1 50 0 12 2 -52 -56 -78 -70 -13 -7 -19 -6 -22 6 -3 8 -8 23 -11 33 -3
9 -8 33 -10 52 -12 94 -74 443 -79 449 -8 7 -225 9 -226 1 0 -3 -2 -14 -4 -25
-2 -11 -9 -51 -15 -90 -18 -103 -18 -104 -42 -67 -17 27 -19 44 -15 92 6 74
39 133 104 186 26 22 74 66 108 100 l60 61 6 -30 c4 -16 16 -41 26 -55z m2300
52 c3 -9 0 -20 -8 -25 -8 -5 -134 -9 -280 -9 l-266 0 0 25 0 25 274 0 c242 0
274 -2 280 -16z m-2013 -376 c-4 -13 -6 -43 -5 -67 1 -25 -4 -48 -10 -52 -8
-5 3 -34 35 -94 25 -48 46 -90 46 -94 0 -3 -24 -19 -54 -34 -94 -50 -166 -136
-166 -201 0 -14 10 -54 23 -89 30 -81 25 -94 -33 -93 l-45 1 0 105 c0 64 4
115 12 130 7 14 39 43 71 64 89 57 90 62 88 261 -2 169 0 184 32 185 9 0 11
-7 6 -22z m1116 -4 c-14 -35 -12 -81 4 -127 l14 -38 -36 3 -37 3 0 78 c-1 68
2 81 19 93 33 23 47 18 36 -12z m490 6 c0 -17 -6 -19 -50 -19 -42 1 -50 5 -50
20 0 16 8 19 50 19 43 0 50 -3 50 -20z m430 16 c0 -3 -4 -8 -10 -11 -5 -3 -10
-1 -10 4 0 6 5 11 10 11 6 0 10 -2 10 -4z m-2424 -77 c3 -24 9 -61 14 -81 9
-43 10 -42 -25 -26 -27 12 -27 16 -10 116 9 51 13 49 21 -9z m-406 -188 c0 -7
-49 -61 -55 -61 -3 0 -5 39 -5 88 l0 87 30 -54 c17 -30 30 -57 30 -60z m163
37 c38 -45 46 -62 41 -82 -5 -21 -2 -25 22 -28 20 -2 31 -12 41 -35 12 -30 11
-33 -14 -45 -40 -20 -63 -58 -67 -112 -5 -51 -18 -69 -77 -101 l-26 -14 -1 86
c-2 122 -30 154 -127 147 l-40 -2 30 21 c17 12 42 35 58 50 19 20 29 24 32 15
4 -10 24 -12 72 -10 37 2 70 5 72 8 3 3 -14 44 -38 92 -23 48 -39 83 -34 77 5
-5 30 -36 56 -67z m1535 1 c-1 -39 -5 -72 -10 -75 -12 -8 -29 35 -25 64 6 33
25 82 32 82 3 0 4 -32 3 -71z m696 -54 c27 -33 54 -59 60 -58 6 2 17 -14 23
-35 16 -49 3 -61 -69 -63 -56 -2 -56 -2 -100 -59 -24 -32 -60 -67 -80 -79
l-38 -21 30 44 c39 57 60 118 60 171 0 24 5 45 11 47 8 3 11 32 10 83 l-1 80
23 -25 c12 -14 44 -52 71 -85z m-1056 -84 c2 -12 1 -29 -2 -38 -5 -12 -12 -6
-31 21 -31 46 -31 47 3 43 19 -3 28 -10 30 -26z m712 -2 c15 -35 15 -111 0
-139 l-12 -22 -31 30 c-18 16 -85 55 -150 86 -65 31 -116 60 -113 65 3 5 71 8
150 8 l145 0 11 -28z m618 1 c13 -16 19 -30 14 -30 -4 0 -21 14 -37 30 -20 21
-24 30 -14 30 8 0 25 -13 37 -30z m-1689 -30 c8 -13 1 -15 -40 -15 l-50 0 33
27 c33 27 35 26 57 -12z m692 -97 c83 -87 89 -126 32 -185 -20 -21 -42 -38
-48 -38 -5 1 -23 12 -40 25 -28 23 -30 28 -31 107 0 70 3 87 19 106 11 12 23
22 27 22 3 0 22 -17 41 -37z m953 -54 c37 -40 54 -65 48 -72 -112 -149 -148
-189 -179 -202 -52 -22 -71 -19 -88 14 -8 16 -26 38 -40 49 -14 11 -25 24 -25
28 0 5 17 27 38 50 89 98 157 177 160 185 8 21 33 5 86 -52z m-2874 1 l-9 -30
85 0 84 0 0 -60 0 -60 -48 4 c-61 5 -110 26 -144 61 -35 35 -35 61 -1 97 32
33 45 28 33 -12z m1156 -51 c1 -24 -22 -59 -38 -59 -13 0 -9 78 5 83 21 9 32
1 33 -24z m483 -101 c25 -78 24 -123 -4 -123 -18 0 -20 8 -22 93 -1 50 0 92 2
92 2 0 13 -28 24 -62z m1575 -106 c15 -18 15 -21 -14 -57 -16 -21 -30 -42 -30
-46 0 -5 19 -9 42 -9 39 0 40 -1 24 -19 -13 -14 -30 -18 -69 -17 -47 1 -55 -2
-81 -31 -25 -29 -34 -33 -81 -33 -56 0 -79 15 -73 46 2 10 31 36 64 58 114 76
189 124 195 125 3 1 13 -7 23 -17z m-994 -112 c27 -18 50 -34 50 -36 0 -2 -15
-3 -32 -2 -18 0 -43 -2 -54 -6 -42 -13 -69 41 -42 84 10 15 14 17 20 6 4 -8
30 -28 58 -46z m-1563 -15 c-12 -28 -48 0 -45 36 l2 29 25 -24 c15 -15 21 -30
18 -41z m2662 -69 c-2 -2 -15 -9 -29 -15 -24 -11 -24 -11 -6 3 16 13 49 24 35
12z"/>
<path d="M448 3205 l-3 -45 142 0 143 0 0 -47 c1 -27 1 -90 2 -140 l1 -93 71
0 71 0 0 138 0 137 140 5 140 5 1 43 1 42 -352 0 -353 0 -4 -45z"/>
<path d="M3833 3231 c-210 -72 -201 -270 17 -335 82 -25 587 -19 644 7 154 69
187 206 69 287 -79 54 -116 59 -408 59 -233 0 -277 -2 -322 -18z m607 -89 c73
-36 78 -107 10 -146 -32 -19 -54 -21 -283 -24 -238 -3 -250 -2 -293 19 -80 38
-84 103 -9 146 39 22 49 23 290 23 218 0 254 -2 285 -18z"/>
<path d="M4507 1322 c-26 -5 -20 -32 7 -32 29 0 32 -9 32 -87 -1 -41 3 -64 11
-67 20 -8 28 15 28 84 0 63 1 65 28 68 28 3 35 16 15 28 -12 8 -92 11 -121 6z"/>
<path d="M4683 1323 c-15 -5 -19 -178 -4 -187 16 -10 27 18 26 64 -2 68 6 70
31 4 28 -77 55 -85 73 -22 7 24 19 54 27 68 13 24 14 23 13 -25 -2 -80 -1 -87
18 -83 15 3 18 16 18 87 1 75 -1 84 -19 91 -28 10 -40 -1 -61 -58 -10 -26 -21
-51 -25 -55 -4 -4 -17 19 -29 51 -20 57 -39 75 -68 65z"/>
<path d="M1504 1117 c-3 -8 -4 -45 -2 -82 l3 -69 33 -2 c35 -3 40 3 46 53 4
34 -11 48 -35 31 -11 -7 -11 -11 -1 -15 19 -7 15 -43 -5 -43 -15 0 -18 9 -17
57 1 44 5 57 15 55 8 -2 17 -9 21 -15 9 -14 15 -8 20 18 2 17 -3 21 -35 23
-25 2 -39 -1 -43 -11z"/>
<path d="M2134 1119 c-8 -13 -7 -149 1 -157 10 -10 19 8 20 41 0 17 4 38 8 44
4 7 3 21 -3 32 -7 13 -7 22 0 26 5 3 10 10 10 16 0 13 -27 11 -36 -2z"/>
<path d="M2330 1045 c0 -69 3 -83 14 -79 8 3 14 18 14 32 -1 42 1 52 11 52 5
0 8 -18 7 -40 0 -22 2 -40 7 -40 4 0 10 0 14 0 5 0 7 30 4 85 -1 9 -11 15 -25
15 -16 0 -23 6 -23 18 0 33 -3 42 -13 42 -6 0 -10 -35 -10 -85z"/>
<path d="M2590 1119 c0 -6 4 -19 10 -29 5 -10 13 -42 17 -71 9 -62 27 -70 29
-13 1 22 9 57 17 77 10 23 12 39 6 43 -13 7 -14 6 -26 -31 -11 -31 -13 -29
-29 23 -4 15 -24 16 -24 1z"/>
<path d="M3065 1120 c-2 -3 -3 -38 -3 -78 1 -53 4 -72 14 -73 41 -4 48 -3 52
9 2 7 -5 12 -17 12 -30 0 -29 45 2 55 l22 8 -22 4 c-17 3 -23 11 -23 29 0 21
4 24 20 19 14 -5 20 -2 20 9 0 12 -8 16 -31 14 -17 -1 -32 -5 -34 -8z"/>
<path d="M3210 1100 c0 -25 -4 -30 -25 -30 -23 0 -25 -3 -25 -49 0 -48 0 -49
35 -53 34 -4 35 -3 36 32 0 19 1 56 2 83 1 32 -2 47 -10 47 -8 0 -13 -13 -13
-30z m0 -80 c0 -27 -18 -44 -21 -20 -1 6 -2 16 -3 23 -3 16 3 27 15 27 5 0 9
-13 9 -30z"/>
<path d="M3266 1095 c4 -8 10 -15 15 -15 5 0 9 7 9 15 0 8 -7 15 -15 15 -9 0
-12 -6 -9 -15z"/>
<path d="M3396 1101 c-3 -5 1 -11 9 -15 9 -3 15 0 15 9 0 16 -16 20 -24 6z"/>
<path d="M2259 1076 c-1 -12 -1 -25 1 -31 1 -5 2 -23 2 -40 1 -26 12 -44 28
-45 4 0 5 78 1 126 -2 20 -31 11 -32 -10z"/>
<path d="M3329 1083 c-4 -46 4 -109 14 -115 15 -9 36 10 22 20 -13 9 -13 42
-1 61 6 10 5 16 -2 19 -7 2 -12 10 -12 18 0 20 -20 17 -21 -3z"/>
<path d="M1616 1054 c-5 -13 -1 -15 19 -10 14 4 25 2 25 -3 0 -5 -11 -12 -25
-15 -18 -5 -25 -13 -25 -31 0 -14 5 -25 10 -26 62 -6 65 -4 66 37 0 21 -1 45
-4 52 -6 18 -59 15 -66 -4z m44 -53 c0 -6 -4 -13 -10 -16 -5 -3 -10 1 -10 9 0
9 5 16 10 16 6 0 10 -4 10 -9z"/>
<path d="M1711 1016 c1 -43 5 -53 16 -49 8 3 14 17 13 32 -3 40 -1 51 10 51 6
0 10 -18 10 -39 0 -22 5 -43 10 -46 11 -7 11 -5 15 40 4 45 4 45 16 45 7 0 10
-15 7 -40 -2 -24 1 -41 8 -44 12 -5 24 77 14 93 -3 5 -31 9 -62 10 l-58 1 1
-54z"/>
<path d="M1865 1058 c-2 -7 -3 -31 -2 -53 2 -41 9 -45 65 -36 14 2 10 31 -5
31 -7 0 -13 -4 -13 -10 0 -5 -7 -7 -16 -3 -15 6 -15 7 1 19 10 7 21 11 25 9
11 -7 20 22 14 40 -7 18 -63 20 -69 3z m45 -18 c0 -5 -4 -10 -10 -10 -5 0 -10
5 -10 10 0 6 5 10 10 10 6 0 10 -4 10 -10z"/>
<path d="M2027 1063 c-4 -3 -7 -26 -7 -50 0 -43 2 -45 45 -45 30 0 32 3 30 45
-2 23 -3 45 -4 50 -1 9 -55 9 -64 0z m43 -43 c0 -18 -5 -30 -13 -30 -9 0 -12
10 -9 30 2 17 8 30 13 30 5 0 9 -13 9 -30z"/>
<path d="M2434 1018 c1 -52 1 -52 33 -53 23 -1 33 4 36 17 6 19 -19 26 -25 7
-2 -7 -9 -5 -17 5 -12 14 -10 16 12 16 26 0 40 20 31 45 -4 9 -19 15 -39 15
l-32 0 1 -52z m46 22 c0 -5 -4 -10 -10 -10 -5 0 -10 5 -10 10 0 6 5 10 10 10
6 0 10 -4 10 -10z"/>
<path d="M2707 1063 c-4 -7 -3 -51 2 -94 1 -5 26 -5 64 0 14 2 7 31 -8 31 -8
0 -15 -5 -15 -11 0 -5 -4 -7 -10 -4 -17 11 -11 23 13 27 16 2 22 10 22 28 0
21 -5 26 -32 28 -17 2 -33 -1 -36 -5z m48 -23 c-3 -5 -10 -10 -16 -10 -5 0 -9
5 -9 10 0 6 7 10 16 10 8 0 12 -4 9 -10z"/>
<path d="M2810 1053 c1 -10 1 -20 0 -23 -5 -13 -6 -60 -1 -61 3 0 20 -2 37 -3
l32 -2 -2 50 c-1 50 -2 51 -34 54 -27 3 -33 0 -32 -15z m40 -13 c0 -5 -4 -10
-10 -10 -5 0 -10 5 -10 10 0 6 5 10 10 10 6 0 10 -4 10 -10z m3 -46 c-8 -21
-23 -17 -23 6 0 13 5 18 14 14 8 -3 12 -12 9 -20z"/>
<path d="M2904 1019 c0 -31 4 -50 13 -53 9 -4 13 5 13 34 0 42 14 61 24 33 5
-12 10 -13 18 -5 19 19 1 40 -34 40 -33 0 -33 0 -34 -49z"/>
<path d="M3267 1063 c-10 -16 -1 -97 11 -101 8 -2 12 13 12 52 0 50 -10 71
-23 49z"/>
<path d="M3394 1020 c0 -32 5 -51 13 -54 10 -4 13 8 13 49 0 38 -4 55 -13 55
-8 0 -13 -16 -13 -50z"/>
<path d="M3457 1064 c-9 -10 -9 -94 1 -95 67 -9 68 -7 67 56 0 37 -2 40 -30
43 -17 2 -34 0 -38 -4z m43 -43 c0 -17 -4 -32 -9 -36 -11 -6 -19 22 -13 48 7
28 22 20 22 -12z"/>
<path d="M3554 1016 c0 -36 4 -53 13 -53 8 0 13 14 13 38 0 34 19 68 21 37 0
-7 2 -24 2 -38 3 -46 22 -31 25 19 l3 50 -39 -1 -38 0 0 -52z"/>
</g>
</svg>
